<svg xmlns="http://www.w3.org/2000/svg" xmlns:xlink="http://www.w3.org/1999/xlink" width="500" zoomAndPan="magnify" viewBox="0 0 375 374.999991" height="500" preserveAspectRatio="xMidYMid meet" version="1.0"><defs><clipPath id="90ab861ace"><path d="M 79 133 L 206 133 L 206 243.667969 L 79 243.667969 Z M 79 133 " clip-rule="nonzero"/></clipPath></defs><rect x="-37.5" width="450" fill="#ffffff" y="-37.499999" height="449.999989" fill-opacity="1"/><rect x="-37.5" width="450" fill="#ffffff" y="-37.499999" height="449.999989" fill-opacity="1"/><path fill="#dd477d" d="M 135.53125 161.851562 C 135.53125 161.851562 146.546875 131.195312 173.421875 135.171875 C 175.253906 135.445312 177.050781 135.855469 178.8125 136.40625 C 180.578125 136.957031 182.289062 137.640625 183.949219 138.457031 C 185.609375 139.273438 187.195312 140.210938 188.710938 141.269531 C 190.226562 142.332031 191.648438 143.503906 192.984375 144.78125 C 194.316406 146.0625 195.546875 147.4375 196.667969 148.910156 C 197.789062 150.378906 198.789062 151.925781 199.671875 153.550781 C 200.554688 155.175781 201.308594 156.859375 201.929688 158.597656 C 202.554688 160.339844 203.039062 162.117188 203.386719 163.933594 C 204.804688 171.417969 204.640625 180.941406 200.988281 192.675781 C 200.597656 193.941406 200.089844 195.15625 199.472656 196.324219 C 196.042969 202.765625 182.949219 226.058594 164.390625 242.550781 C 164.390625 242.550781 136.75 241.066406 113.75 230.867188 C 113.75 230.867188 91.449219 220.621094 83.589844 201.394531 C 83.199219 200.441406 82.851562 199.472656 82.546875 198.488281 C 82.242188 197.5 81.984375 196.503906 81.769531 195.496094 C 81.554688 194.488281 81.386719 193.472656 81.265625 192.449219 C 81.140625 191.425781 81.066406 190.398438 81.035156 189.367188 C 81.007812 188.335938 81.023438 187.308594 81.085938 186.277344 C 81.152344 185.25 81.261719 184.226562 81.417969 183.207031 C 81.574219 182.1875 81.777344 181.175781 82.023438 180.175781 C 82.269531 179.175781 82.5625 178.1875 82.902344 177.214844 C 83.238281 176.238281 83.617188 175.28125 84.042969 174.34375 C 84.464844 173.402344 84.929688 172.484375 85.4375 171.585938 C 85.945312 170.6875 86.488281 169.8125 87.074219 168.964844 C 87.660156 168.117188 88.285156 167.296875 88.945312 166.503906 C 89.605469 165.710938 90.296875 164.953125 91.027344 164.222656 C 91.753906 163.492188 92.515625 162.796875 93.308594 162.136719 C 94.097656 161.476562 94.917969 160.855469 95.765625 160.265625 C 96.613281 159.679688 97.488281 159.132812 98.382812 158.625 C 106.957031 153.738281 119.253906 151.949219 135.53125 161.851562 Z M 135.53125 161.851562 " fill-opacity="1" fill-rule="nonzero"/><g clip-path="url(#90ab861ace)"><path fill="#ffffff" d="M 164.835938 243.851562 L 164.339844 243.824219 C 164.0625 243.824219 136.207031 242.214844 113.265625 232.035156 C 112.320312 231.601562 90.414062 221.355469 82.460938 201.898438 C 82.054688 200.914062 81.695312 199.910156 81.378906 198.886719 C 81.0625 197.867188 80.796875 196.835938 80.574219 195.792969 C 80.351562 194.746094 80.175781 193.695312 80.050781 192.632812 C 79.921875 191.574219 79.84375 190.511719 79.8125 189.441406 C 79.785156 188.375 79.800781 187.308594 79.867188 186.242188 C 79.933594 185.175781 80.046875 184.117188 80.207031 183.0625 C 80.371094 182.003906 80.578125 180.960938 80.835938 179.921875 C 81.089844 178.886719 81.394531 177.863281 81.742188 176.855469 C 82.089844 175.84375 82.484375 174.851562 82.921875 173.878906 C 83.359375 172.90625 83.839844 171.953125 84.367188 171.023438 C 84.890625 170.09375 85.453125 169.1875 86.0625 168.308594 C 86.667969 167.429688 87.3125 166.582031 87.992188 165.757812 C 88.675781 164.9375 89.394531 164.148438 90.148438 163.394531 C 90.902344 162.636719 91.691406 161.917969 92.507812 161.234375 C 93.328125 160.546875 94.175781 159.902344 95.054688 159.292969 C 95.933594 158.683594 96.835938 158.117188 97.765625 157.589844 C 108.746094 151.285156 121.238281 152.140625 134.933594 160.070312 C 137.097656 155.035156 139.941406 150.425781 143.472656 146.238281 C 151.742188 136.496094 162.148438 132.253906 173.601562 133.945312 C 175.496094 134.226562 177.355469 134.652344 179.183594 135.21875 C 181.011719 135.789062 182.785156 136.492188 184.503906 137.335938 C 186.222656 138.179688 187.863281 139.148438 189.433594 140.246094 C 191 141.34375 192.476562 142.554688 193.855469 143.882812 C 195.238281 145.207031 196.507812 146.632812 197.667969 148.152344 C 198.828125 149.675781 199.863281 151.277344 200.777344 152.960938 C 201.6875 154.644531 202.464844 156.386719 203.105469 158.191406 C 203.75 159.992188 204.25 161.835938 204.605469 163.714844 C 206.285156 172.589844 205.460938 182.472656 202.171875 193.078125 C 201.757812 194.417969 201.222656 195.703125 200.566406 196.9375 C 196.984375 203.679688 183.839844 226.953125 165.210938 243.523438 Z M 113.191406 155.910156 C 110.699219 155.90625 108.246094 156.230469 105.839844 156.878906 C 103.433594 157.527344 101.152344 158.480469 99 159.738281 C 84.394531 168.117188 78.398438 185.457031 84.734375 200.964844 C 92.316406 219.496094 114.050781 229.675781 114.265625 229.777344 C 135.082031 239.019531 160.109375 241.050781 163.953125 241.316406 C 182.066406 225.054688 194.867188 202.375 198.378906 195.78125 C 198.960938 194.679688 199.433594 193.535156 199.804688 192.34375 C 202.976562 182.125 203.769531 172.652344 202.171875 164.175781 C 201.839844 162.421875 201.371094 160.703125 200.773438 159.019531 C 200.175781 157.335938 199.449219 155.710938 198.597656 154.140625 C 197.746094 152.570312 196.78125 151.074219 195.699219 149.652344 C 194.617188 148.234375 193.429688 146.902344 192.140625 145.667969 C 190.851562 144.429688 189.476562 143.300781 188.015625 142.273438 C 186.550781 141.25 185.015625 140.34375 183.414062 139.558594 C 181.808594 138.773438 180.15625 138.113281 178.449219 137.582031 C 176.742188 137.050781 175.007812 136.65625 173.242188 136.394531 C 147.664062 132.617188 136.804688 161.976562 136.695312 162.273438 L 136.203125 163.703125 L 134.894531 162.914062 C 127.214844 158.246094 119.960938 155.910156 113.191406 155.910156 Z M 113.191406 155.910156 " fill-opacity="1" fill-rule="nonzero"/></g><path fill="#dd477d" d="M 236.207031 156.578125 C 236.207031 156.578125 261.976562 136.675781 282.503906 154.5 C 283.898438 155.714844 285.191406 157.03125 286.378906 158.445312 C 287.570312 159.859375 288.644531 161.359375 289.605469 162.941406 C 290.5625 164.523438 291.394531 166.167969 292.101562 167.878906 C 292.804688 169.585938 293.375 171.339844 293.808594 173.136719 C 294.242188 174.9375 294.535156 176.757812 294.691406 178.597656 C 294.84375 180.441406 294.851562 182.285156 294.722656 184.132812 C 294.589844 185.976562 294.316406 187.800781 293.90625 189.601562 C 293.492188 191.40625 292.941406 193.164062 292.257812 194.882812 C 289.421875 201.945312 284.15625 209.882812 274.75 217.828125 C 273.738281 218.683594 272.660156 219.433594 271.507812 220.085938 C 265.140625 223.675781 241.570312 236.242188 217.054688 240.148438 C 217.054688 240.148438 194.558594 224.015625 180.675781 203.035156 C 180.675781 203.035156 167.402344 182.394531 171.128906 161.960938 C 171.3125 160.945312 171.539062 159.941406 171.816406 158.949219 C 172.089844 157.953125 172.40625 156.976562 172.769531 156.011719 C 173.132812 155.046875 173.535156 154.097656 173.984375 153.171875 C 174.433594 152.242188 174.921875 151.335938 175.453125 150.449219 C 175.980469 149.566406 176.550781 148.707031 177.160156 147.875 C 177.765625 147.042969 178.410156 146.238281 179.089844 145.464844 C 179.773438 144.691406 180.484375 143.949219 181.234375 143.238281 C 181.980469 142.527344 182.757812 141.851562 183.566406 141.214844 C 184.375 140.574219 185.210938 139.972656 186.074219 139.40625 C 186.9375 138.84375 187.824219 138.320312 188.734375 137.835938 C 189.644531 137.351562 190.574219 136.910156 191.527344 136.511719 C 192.476562 136.113281 193.441406 135.753906 194.425781 135.445312 C 195.40625 135.132812 196.402344 134.863281 197.410156 134.640625 C 198.414062 134.417969 199.429688 134.242188 200.453125 134.113281 C 201.476562 133.980469 202.503906 133.898438 203.53125 133.859375 C 204.5625 133.824219 205.59375 133.832031 206.621094 133.886719 C 216.492188 134.359375 227.816406 139.46875 236.207031 156.578125 Z M 236.207031 156.578125 " fill-opacity="1" fill-rule="nonzero"/><path fill="#ffffff" d="M 216.746094 241.453125 L 216.332031 241.15625 C 216.101562 240.996094 193.488281 224.652344 179.65625 203.71875 C 179.097656 202.847656 166.160156 182.410156 169.929688 161.738281 C 170.3125 159.632812 170.878906 157.578125 171.628906 155.578125 C 172.382812 153.574219 173.308594 151.65625 174.410156 149.824219 C 175.511719 147.988281 176.765625 146.265625 178.179688 144.660156 C 179.589844 143.054688 181.136719 141.585938 182.816406 140.261719 C 184.496094 138.9375 186.285156 137.773438 188.175781 136.773438 C 190.066406 135.769531 192.03125 134.941406 194.070312 134.292969 C 196.113281 133.644531 198.191406 133.179688 200.316406 132.902344 C 202.4375 132.628906 204.570312 132.542969 206.707031 132.648438 C 219.351562 133.253906 229.433594 140.683594 236.695312 154.730469 C 241.222656 151.652344 246.105469 149.300781 251.332031 147.667969 C 263.554688 143.941406 274.625 145.984375 283.347656 153.566406 C 284.792969 154.824219 286.128906 156.183594 287.363281 157.644531 C 288.597656 159.109375 289.710938 160.65625 290.707031 162.292969 C 291.699219 163.929688 292.5625 165.628906 293.292969 167.398438 C 294.023438 169.167969 294.613281 170.984375 295.0625 172.84375 C 295.511719 174.703125 295.816406 176.589844 295.972656 178.496094 C 296.128906 180.402344 296.140625 182.3125 296.003906 184.21875 C 295.863281 186.128906 295.578125 188.015625 295.148438 189.882812 C 294.71875 191.746094 294.148438 193.566406 293.4375 195.34375 C 290.070312 203.730469 284.0625 211.613281 275.597656 218.773438 C 274.527344 219.679688 273.382812 220.476562 272.160156 221.167969 C 265.515625 224.914062 241.933594 237.449219 217.296875 241.371094 Z M 204.894531 135.085938 C 203.933594 135.078125 202.972656 135.113281 202.019531 135.191406 C 201.0625 135.265625 200.109375 135.386719 199.164062 135.546875 C 198.214844 135.707031 197.277344 135.90625 196.351562 136.148438 C 195.421875 136.390625 194.503906 136.675781 193.601562 136.996094 C 192.699219 137.320312 191.808594 137.683594 190.9375 138.082031 C 190.066406 138.484375 189.210938 138.921875 188.378906 139.398438 C 187.546875 139.875 186.734375 140.386719 185.945312 140.933594 C 185.15625 141.480469 184.394531 142.0625 183.65625 142.675781 C 182.917969 143.289062 182.207031 143.933594 181.527344 144.609375 C 180.847656 145.289062 180.195312 145.992188 179.578125 146.726562 C 178.957031 147.460938 178.371094 148.21875 177.820312 149.003906 C 177.269531 149.789062 176.75 150.597656 176.269531 151.425781 C 175.789062 152.257812 175.34375 153.105469 174.9375 153.976562 C 174.53125 154.84375 174.160156 155.730469 173.832031 156.632812 C 173.503906 157.535156 173.214844 158.449219 172.964844 159.375 C 172.71875 160.304688 172.511719 161.238281 172.34375 162.183594 C 168.75 181.882812 181.585938 202.164062 181.714844 202.367188 C 194.292969 221.371094 214.269531 236.558594 217.367188 238.84375 C 241.390625 234.878906 264.386719 222.679688 270.886719 219.023438 C 271.972656 218.40625 272.988281 217.699219 273.941406 216.894531 C 282.113281 209.996094 287.886719 202.441406 291.097656 194.4375 C 291.761719 192.777344 292.292969 191.078125 292.695312 189.339844 C 293.097656 187.597656 293.363281 185.835938 293.492188 184.054688 C 293.621094 182.273438 293.609375 180.496094 293.464844 178.714844 C 293.316406 176.933594 293.03125 175.175781 292.613281 173.441406 C 292.195312 171.703125 291.644531 170.011719 290.960938 168.359375 C 290.28125 166.707031 289.476562 165.121094 288.550781 163.59375 C 287.621094 162.066406 286.582031 160.621094 285.429688 159.257812 C 284.277344 157.890625 283.03125 156.621094 281.683594 155.449219 C 273.539062 148.375 263.578125 146.53125 252.085938 150.035156 C 246.644531 151.726562 241.609375 154.238281 236.980469 157.5625 L 235.761719 158.484375 L 235.09375 157.121094 C 228.21875 143.121094 218.644531 135.6875 206.5625 135.125 C 206.003906 135.101562 205.441406 135.085938 204.894531 135.085938 Z M 204.894531 135.085938 " fill-opacity="1" fill-rule="nonzero"/></svg>