<svg xmlns="http://www.w3.org/2000/svg" xmlns:xlink="http://www.w3.org/1999/xlink" width="500" zoomAndPan="magnify" viewBox="0 0 375 374.999991" height="500" preserveAspectRatio="xMidYMid meet" version="1.0"><defs><clipPath id="258e048da8"><path d="M 6 96 L 218 96 L 218 281.8125 L 6 281.8125 Z M 6 96 " clip-rule="nonzero"/></clipPath></defs><path fill="#dd477d" d="M 99.691406 144.390625 C 99.691406 144.390625 118.207031 92.863281 163.378906 99.542969 C 164.914062 99.773438 166.4375 100.0625 167.949219 100.410156 C 169.460938 100.753906 170.957031 101.160156 172.4375 101.621094 C 173.917969 102.085938 175.378906 102.605469 176.820312 103.179688 C 178.261719 103.753906 179.679688 104.382812 181.070312 105.066406 C 182.464844 105.753906 183.828125 106.488281 185.164062 107.277344 C 186.5 108.066406 187.800781 108.90625 189.074219 109.796875 C 190.34375 110.6875 191.578125 111.625 192.777344 112.609375 C 193.976562 113.59375 195.136719 114.625 196.253906 115.699219 C 197.375 116.773438 198.449219 117.890625 199.484375 119.046875 C 200.515625 120.203125 201.503906 121.398438 202.445312 122.632812 C 203.386719 123.867188 204.277344 125.136719 205.121094 126.4375 C 205.964844 127.738281 206.757812 129.074219 207.496094 130.4375 C 208.238281 131.800781 208.925781 133.1875 209.558594 134.605469 C 210.191406 136.023438 210.769531 137.460938 211.292969 138.921875 C 211.8125 140.382812 212.277344 141.859375 212.6875 143.359375 C 213.097656 144.855469 213.445312 146.363281 213.738281 147.890625 C 216.121094 160.464844 215.847656 176.476562 209.707031 196.199219 C 209.050781 198.324219 208.199219 200.367188 207.15625 202.332031 C 201.394531 213.160156 179.386719 252.308594 148.191406 280.03125 C 148.191406 280.03125 101.738281 277.53125 63.082031 260.386719 C 63.082031 260.386719 25.597656 243.171875 12.386719 210.851562 C 11.730469 209.25 11.144531 207.621094 10.632812 205.964844 C 10.121094 204.308594 9.683594 202.632812 9.324219 200.9375 C 8.964844 199.242188 8.679688 197.535156 8.476562 195.816406 C 8.269531 194.09375 8.140625 192.367188 8.09375 190.636719 C 8.042969 188.902344 8.074219 187.171875 8.179688 185.445312 C 8.285156 183.714844 8.472656 181.992188 8.734375 180.28125 C 8.996094 178.566406 9.335938 176.871094 9.753906 175.1875 C 10.167969 173.507812 10.660156 171.847656 11.226562 170.207031 C 11.792969 168.570312 12.433594 166.960938 13.144531 165.382812 C 13.855469 163.800781 14.636719 162.257812 15.488281 160.75 C 16.339844 159.238281 17.257812 157.773438 18.242188 156.347656 C 19.226562 154.921875 20.273438 153.542969 21.382812 152.210938 C 22.492188 150.878906 23.660156 149.601562 24.886719 148.375 C 26.109375 147.148438 27.386719 145.980469 28.71875 144.871094 C 30.046875 143.757812 31.425781 142.710938 32.851562 141.726562 C 34.277344 140.738281 35.742188 139.820312 37.25 138.96875 C 51.660156 130.753906 72.328125 127.746094 99.691406 144.390625 Z M 99.691406 144.390625 " fill-opacity="1" fill-rule="nonzero"/><g clip-path="url(#258e048da8)"><path fill="#ffffff" d="M 148.941406 282.210938 L 148.109375 282.171875 C 147.644531 282.171875 100.824219 279.464844 62.265625 262.355469 C 60.675781 261.621094 23.855469 244.402344 10.488281 211.703125 C 9.804688 210.042969 9.199219 208.355469 8.671875 206.640625 C 8.140625 204.925781 7.6875 203.191406 7.316406 201.433594 C 6.941406 199.679688 6.648438 197.910156 6.4375 196.128906 C 6.222656 194.347656 6.089844 192.558594 6.039062 190.765625 C 5.988281 188.96875 6.015625 187.175781 6.128906 185.386719 C 6.238281 183.59375 6.429688 181.8125 6.699219 180.039062 C 6.972656 178.261719 7.324219 176.503906 7.753906 174.761719 C 8.183594 173.019531 8.691406 171.300781 9.277344 169.605469 C 9.863281 167.910156 10.527344 166.242188 11.261719 164.605469 C 12 162.96875 12.808594 161.367188 13.6875 159.804688 C 14.570312 158.242188 15.519531 156.71875 16.539062 155.242188 C 17.558594 153.765625 18.640625 152.335938 19.789062 150.957031 C 20.9375 149.578125 22.144531 148.25 23.410156 146.980469 C 24.679688 145.710938 26 144.5 27.378906 143.347656 C 28.753906 142.195312 30.179688 141.109375 31.65625 140.089844 C 33.128906 139.066406 34.648438 138.113281 36.210938 137.226562 C 54.667969 126.632812 75.667969 128.0625 98.683594 141.390625 C 102.320312 132.933594 107.101562 125.183594 113.035156 118.144531 C 126.9375 101.769531 144.429688 94.636719 163.675781 97.488281 C 165.265625 97.722656 166.84375 98.019531 168.410156 98.375 C 169.976562 98.730469 171.527344 99.148438 173.058594 99.625 C 174.59375 100.101562 176.105469 100.636719 177.597656 101.230469 C 179.089844 101.828125 180.558594 102.476562 182 103.183594 C 183.441406 103.890625 184.855469 104.652344 186.238281 105.46875 C 187.621094 106.285156 188.96875 107.15625 190.285156 108.074219 C 191.601562 108.996094 192.878906 109.96875 194.121094 110.988281 C 195.363281 112.007812 196.5625 113.074219 197.722656 114.183594 C 198.878906 115.296875 199.992188 116.453125 201.0625 117.652344 C 202.132812 118.851562 203.152344 120.089844 204.125 121.367188 C 205.101562 122.644531 206.023438 123.957031 206.894531 125.304688 C 207.765625 126.652344 208.585938 128.035156 209.351562 129.445312 C 210.117188 130.859375 210.824219 132.296875 211.480469 133.765625 C 212.132812 135.230469 212.730469 136.722656 213.269531 138.234375 C 213.808594 139.75 214.289062 141.28125 214.707031 142.832031 C 215.128906 144.378906 215.488281 145.945312 215.789062 147.523438 C 218.609375 162.441406 217.230469 179.050781 211.699219 196.875 C 211.003906 199.125 210.105469 201.285156 209 203.363281 C 202.976562 214.691406 180.886719 253.808594 149.574219 281.660156 Z M 62.140625 134.402344 C 57.949219 134.398438 53.832031 134.941406 49.785156 136.03125 C 45.738281 137.121094 41.90625 138.722656 38.285156 140.832031 C 13.738281 154.917969 3.65625 184.0625 14.3125 210.128906 C 27.054688 241.28125 63.582031 258.390625 63.949219 258.554688 C 98.933594 274.089844 140.996094 277.503906 147.460938 277.957031 C 177.90625 250.617188 199.421875 212.5 205.324219 201.414062 C 206.300781 199.566406 207.097656 197.640625 207.714844 195.640625 C 213.046875 178.464844 214.378906 162.539062 211.699219 148.296875 C 211.417969 146.824219 211.082031 145.363281 210.691406 143.917969 C 210.296875 142.472656 209.851562 141.042969 209.347656 139.628906 C 208.84375 138.21875 208.289062 136.828125 207.679688 135.457031 C 207.066406 134.089844 206.40625 132.746094 205.691406 131.429688 C 204.976562 130.109375 204.214844 128.820312 203.398438 127.5625 C 202.585938 126.304688 201.726562 125.078125 200.816406 123.886719 C 199.910156 122.695312 198.957031 121.539062 197.957031 120.421875 C 196.960938 119.300781 195.921875 118.222656 194.839844 117.183594 C 193.757812 116.148438 192.636719 115.152344 191.480469 114.199219 C 190.320312 113.25 189.128906 112.34375 187.902344 111.484375 C 186.671875 110.625 185.414062 109.8125 184.121094 109.050781 C 182.832031 108.289062 181.515625 107.578125 180.167969 106.917969 C 178.824219 106.257812 177.453125 105.652344 176.0625 105.097656 C 174.667969 104.542969 173.257812 104.042969 171.824219 103.597656 C 170.394531 103.152344 168.945312 102.765625 167.484375 102.429688 C 166.023438 102.097656 164.550781 101.820312 163.070312 101.601562 C 120.082031 95.253906 101.832031 144.597656 101.648438 145.097656 L 100.8125 147.496094 L 98.617188 146.171875 C 85.710938 138.328125 73.519531 134.402344 62.140625 134.402344 Z M 62.140625 134.402344 " fill-opacity="1" fill-rule="nonzero"/></g><path fill="#dd477d" d="M 268.90625 135.527344 C 268.90625 135.527344 312.21875 102.074219 346.71875 132.03125 C 347.890625 133.050781 349.019531 134.113281 350.105469 135.222656 C 351.191406 136.328125 352.234375 137.476562 353.234375 138.664062 C 354.234375 139.851562 355.183594 141.074219 356.089844 142.335938 C 356.992188 143.597656 357.847656 144.890625 358.652344 146.21875 C 359.457031 147.546875 360.210938 148.902344 360.910156 150.285156 C 361.609375 151.671875 362.257812 153.082031 362.847656 154.515625 C 363.441406 155.949219 363.976562 157.40625 364.453125 158.882812 C 364.933594 160.359375 365.355469 161.851562 365.71875 163.359375 C 366.085938 164.867188 366.390625 166.386719 366.636719 167.921875 C 366.882812 169.453125 367.074219 170.992188 367.199219 172.539062 C 367.328125 174.085938 367.398438 175.632812 367.40625 177.1875 C 367.417969 178.738281 367.367188 180.289062 367.253906 181.835938 C 367.144531 183.382812 366.976562 184.925781 366.746094 186.460938 C 366.515625 187.996094 366.226562 189.519531 365.882812 191.03125 C 365.535156 192.542969 365.128906 194.039062 364.667969 195.523438 C 364.207031 197.003906 363.6875 198.464844 363.113281 199.90625 C 358.347656 211.777344 349.492188 225.121094 333.683594 238.472656 C 331.988281 239.910156 330.171875 241.175781 328.238281 242.269531 C 317.535156 248.300781 277.917969 269.425781 236.710938 275.988281 C 236.710938 275.988281 198.902344 248.875 175.5625 213.609375 C 175.5625 213.609375 153.257812 178.917969 159.519531 144.574219 C 159.828125 142.867188 160.210938 141.179688 160.671875 139.511719 C 161.132812 137.839844 161.667969 136.191406 162.277344 134.570312 C 162.886719 132.949219 163.566406 131.355469 164.320312 129.796875 C 165.074219 128.234375 165.894531 126.710938 166.789062 125.226562 C 167.679688 123.738281 168.632812 122.296875 169.65625 120.898438 C 170.675781 119.496094 171.761719 118.148438 172.902344 116.84375 C 174.046875 115.542969 175.246094 114.296875 176.503906 113.101562 C 177.761719 111.910156 179.066406 110.773438 180.425781 109.699219 C 181.785156 108.625 183.191406 107.613281 184.640625 106.664062 C 186.09375 105.71875 187.582031 104.835938 189.113281 104.023438 C 190.644531 103.210938 192.207031 102.46875 193.804688 101.796875 C 195.402344 101.125 197.027344 100.527344 198.675781 100.003906 C 200.328125 99.476562 202 99.027344 203.691406 98.65625 C 205.382812 98.28125 207.089844 97.984375 208.808594 97.765625 C 210.527344 97.546875 212.253906 97.40625 213.984375 97.339844 C 215.714844 97.277344 217.449219 97.292969 219.175781 97.386719 C 235.769531 98.179688 254.804688 106.765625 268.90625 135.527344 Z M 268.90625 135.527344 " fill-opacity="1" fill-rule="nonzero"/><path fill="#ffffff" d="M 236.195312 278.179688 L 235.496094 277.679688 C 235.113281 277.414062 197.105469 249.941406 173.855469 214.757812 C 172.914062 213.292969 151.167969 178.941406 157.503906 144.199219 C 158.144531 140.660156 159.097656 137.207031 160.363281 133.84375 C 161.628906 130.476562 163.1875 127.253906 165.035156 124.171875 C 166.886719 121.085938 168.996094 118.195312 171.371094 115.496094 C 173.746094 112.792969 176.34375 110.328125 179.164062 108.097656 C 181.992188 105.875 184.992188 103.917969 188.171875 102.234375 C 191.351562 100.550781 194.65625 99.160156 198.082031 98.070312 C 201.511719 96.976562 205.007812 96.199219 208.578125 95.734375 C 212.144531 95.269531 215.726562 95.125 219.320312 95.304688 C 240.578125 96.320312 257.519531 108.804688 269.722656 132.421875 C 277.335938 127.246094 285.539062 123.289062 294.328125 120.550781 C 314.867188 114.289062 333.476562 117.71875 348.136719 130.464844 C 349.347656 131.515625 350.519531 132.617188 351.644531 133.761719 C 352.773438 134.90625 353.851562 136.089844 354.890625 137.316406 C 355.925781 138.546875 356.910156 139.8125 357.847656 141.117188 C 358.785156 142.417969 359.671875 143.757812 360.503906 145.128906 C 361.339844 146.503906 362.121094 147.90625 362.84375 149.339844 C 363.570312 150.769531 364.238281 152.230469 364.851562 153.714844 C 365.464844 155.199219 366.019531 156.703125 366.515625 158.230469 C 367.011719 159.757812 367.449219 161.304688 367.828125 162.863281 C 368.203125 164.425781 368.519531 166 368.777344 167.585938 C 369.03125 169.171875 369.226562 170.765625 369.355469 172.363281 C 369.488281 173.964844 369.558594 175.566406 369.566406 177.175781 C 369.578125 178.78125 369.523438 180.382812 369.40625 181.984375 C 369.292969 183.589844 369.113281 185.183594 368.875 186.769531 C 368.636719 188.359375 368.335938 189.9375 367.976562 191.5 C 367.613281 193.066406 367.191406 194.613281 366.710938 196.148438 C 366.230469 197.679688 365.691406 199.191406 365.09375 200.683594 C 359.441406 214.773438 349.335938 228.027344 335.109375 240.0625 C 333.308594 241.585938 331.386719 242.925781 329.335938 244.085938 C 318.167969 250.382812 278.527344 271.449219 237.121094 278.046875 Z M 216.269531 99.402344 C 214.65625 99.390625 213.046875 99.449219 211.4375 99.578125 C 209.832031 99.703125 208.230469 99.902344 206.640625 100.171875 C 205.050781 100.441406 203.472656 100.78125 201.914062 101.1875 C 200.351562 101.597656 198.8125 102.070312 197.292969 102.613281 C 195.773438 103.15625 194.28125 103.765625 192.8125 104.4375 C 191.347656 105.113281 189.914062 105.851562 188.515625 106.648438 C 187.113281 107.449219 185.75 108.308594 184.421875 109.230469 C 183.097656 110.148438 181.816406 111.125 180.574219 112.15625 C 179.335938 113.1875 178.144531 114.273438 177 115.410156 C 175.855469 116.546875 174.761719 117.730469 173.722656 118.964844 C 172.679688 120.199219 171.695312 121.472656 170.765625 122.792969 C 169.839844 124.113281 168.96875 125.46875 168.160156 126.867188 C 167.351562 128.261719 166.605469 129.691406 165.921875 131.152344 C 165.238281 132.613281 164.617188 134.101562 164.066406 135.617188 C 163.511719 137.132812 163.027344 138.667969 162.609375 140.226562 C 162.191406 141.785156 161.84375 143.359375 161.5625 144.949219 C 155.523438 178.058594 177.097656 212.144531 177.3125 212.484375 C 198.453125 244.429688 232.03125 269.957031 237.234375 273.796875 C 277.617188 267.136719 316.265625 246.628906 327.195312 240.480469 C 329.015625 239.449219 330.726562 238.257812 332.328125 236.90625 C 346.0625 225.3125 355.765625 212.609375 361.164062 199.15625 C 361.722656 197.765625 362.222656 196.355469 362.671875 194.925781 C 363.121094 193.496094 363.515625 192.050781 363.851562 190.589844 C 364.1875 189.128906 364.46875 187.65625 364.691406 186.175781 C 364.914062 184.695312 365.078125 183.207031 365.1875 181.710938 C 365.292969 180.214844 365.34375 178.71875 365.335938 177.21875 C 365.328125 175.722656 365.261719 174.226562 365.140625 172.730469 C 365.015625 171.238281 364.835938 169.75 364.597656 168.269531 C 364.359375 166.792969 364.0625 165.324219 363.710938 163.867188 C 363.359375 162.410156 362.953125 160.96875 362.488281 159.542969 C 362.027344 158.117188 361.507812 156.710938 360.9375 155.328125 C 360.363281 153.941406 359.738281 152.582031 359.0625 151.242188 C 358.386719 149.90625 357.65625 148.597656 356.878906 147.316406 C 356.101562 146.035156 355.273438 144.785156 354.398438 143.570312 C 353.523438 142.351562 352.605469 141.171875 351.636719 140.027344 C 350.671875 138.878906 349.664062 137.773438 348.613281 136.707031 C 347.558594 135.636719 346.46875 134.613281 345.335938 133.628906 C 331.652344 121.734375 314.910156 118.636719 295.59375 124.523438 C 286.449219 127.371094 277.984375 131.589844 270.203125 137.175781 L 268.15625 138.726562 L 267.03125 136.4375 C 255.476562 112.90625 239.386719 100.410156 219.078125 99.46875 C 218.136719 99.425781 217.195312 99.402344 216.269531 99.402344 Z M 216.269531 99.402344 " fill-opacity="1" fill-rule="nonzero"/></svg>